<svg id="Calque_1" data-name="Calque 1" xmlns="http://www.w3.org/2000/svg" xmlns:xlink="http://www.w3.org/1999/xlink" viewBox="0 0 274 274"><defs><style>.cls-1{fill:#000002;opacity:0.25;isolation:isolate;}.cls-2{fill:#fff;}.cls-3{fill:url(#Dégradé_sans_nom);}</style><linearGradient id="Dégradé_sans_nom" x1="-180.43" y1="266.58" x2="-162.72" y2="279.22" gradientTransform="matrix(0.95, 0, 0, -0.93, 282.85, 414.78)" gradientUnits="userSpaceOnUse"><stop offset="0" stop-color="#fff"/><stop offset="0.16" stop-color="#fff" stop-opacity="0.99"/><stop offset="0.29" stop-color="#fff" stop-opacity="0.95"/><stop offset="0.41" stop-color="#fff" stop-opacity="0.88"/><stop offset="0.52" stop-color="#fff" stop-opacity="0.78"/><stop offset="0.63" stop-color="#fff" stop-opacity="0.66"/><stop offset="0.74" stop-color="#fff" stop-opacity="0.51"/><stop offset="0.84" stop-color="#fff" stop-opacity="0.33"/><stop offset="0.94" stop-color="#fff" stop-opacity="0.13"/><stop offset="1" stop-color="#fff" stop-opacity="0"/></linearGradient></defs><title>WPS Player 4</title><circle class="cls-1" cx="137" cy="137.02" r="130.48"/><path class="cls-2" d="M193.06,119.1Q149.46,94,105.94,68.68c-5.88-3.4-9.93-3.6-13.84-.6-4.41,3.4-4.2,7.58-2.58,12.25,5.54,15.92,10.76,31.93,16.34,47.84a26.69,26.69,0,0,1,1.13,4.39c4.1,6.12,21.94,33.9,24.54,57.65q31-18.51,62-36.94c6.7-4,10.69-9.21,10.74-18.34C204.44,128.54,200.1,123.16,193.06,119.1Z"/><path class="cls-3" d="M105.94,144.57c-5.56,16.6-10.82,33.26-16.31,49.9-1.54,4.64-1,8.67,3.35,11.66s8.73,2.35,13-.32c5-3.12,10-6.27,15-9.29l10.51-6.27c-2.6-23.75-20.44-51.53-24.54-57.65A24.59,24.59,0,0,1,105.94,144.57Z"/><path class="cls-2" d="M137,0C61.45,0,0,61.47,0,137S61.46,274,137,274s137-61.46,137-137S212.55,0,137,0Zm0,264.89A127.88,127.88,0,1,1,264.88,137h0A128,128,0,0,1,137,264.89Z"/></svg>